<svg width="400" height="500" viewBox="0 0 400 500" fill="none" xmlns="http://www.w3.org/2000/svg">
  <!-- Background -->
  <rect width="400" height="500" fill="#f3f4f6"/>
  
  <!-- Main Building -->
  <rect x="50" y="100" width="300" height="400" fill="#4f46e5" rx="20"/>
  
  <!-- Building Details -->
  <rect x="70" y="120" width="260" height="20" fill="#6366f1" rx="10"/>
  
  <!-- Windows Grid -->
  <rect x="80" y="150" width="40" height="40" fill="#8b94a6"/>
  <rect x="140" y="150" width="40" height="40" fill="#8b94a6"/>
  <rect x="200" y="150" width="40" height="40" fill="#8b94a6"/>
  <rect x="260" y="150" width="40" height="40" fill="#8b94a6"/>
  
  <rect x="80" y="210" width="40" height="40" fill="#8b94a6"/>
  <rect x="140" y="210" width="40" height="40" fill="#8b94a6"/>
  <rect x="200" y="210" width="40" height="40" fill="#8b94a6"/>
  <rect x="260" y="210" width="40" height="40" fill="#8b94a6"/>
  
  <rect x="80" y="270" width="40" height="40" fill="#8b94a6"/>
  <rect x="140" y="270" width="40" height="40" fill="#8b94a6"/>
  <rect x="200" y="270" width="40" height="40" fill="#8b94a6"/>
  <rect x="260" y="270" width="40" height="40" fill="#8b94a6"/>
  
  <rect x="80" y="330" width="40" height="40" fill="#8b94a6"/>
  <rect x="140" y="330" width="40" height="40" fill="#8b94a6"/>
  <rect x="200" y="330" width="40" height="40" fill="#8b94a6"/>
  <rect x="260" y="330" width="40" height="40" fill="#8b94a6"/>
  
  <rect x="80" y="390" width="40" height="40" fill="#8b94a6"/>
  <rect x="140" y="390" width="40" height="40" fill="#8b94a6"/>
  <rect x="200" y="390" width="40" height="40" fill="#8b94a6"/>
  <rect x="260" y="390" width="40" height="40" fill="#8b94a6"/>
  
  <!-- Accent Elements -->
  <rect x="320" y="80" width="60" height="60" fill="#60a5fa" rx="15" transform="rotate(15 350 110)"/>
  <rect x="20" y="400" width="40" height="40" fill="#f97316" rx="10" transform="rotate(-15 40 420)"/>
</svg>